<?xml version="1.0" encoding="utf-8"?>
<!-- Generator: Adobe Illustrator 22.1.0, SVG Export Plug-In . SVG Version: 6.00 Build 0)  -->
<svg version="1.1" id="Layer_1" xmlns="http://www.w3.org/2000/svg" xmlns:xlink="http://www.w3.org/1999/xlink" x="0px" y="0px"
	 viewBox="0 0 189 188" style="enable-background:new 0 0 189 188;" xml:space="preserve">
<style type="text/css">
	.st0{fill:#A81E1C;}
	.st1{fill-rule:evenodd;clip-rule:evenodd;fill:#A81E1C;}
</style>
<path class="st0" d="M182.6,114.7l-14.2-3l0.5-2.2l2.1,0.5c-0.9-0.8-1.4-1.4-1.7-2c-0.2-0.5-0.3-1.1-0.2-1.6
	c0.2-0.8,0.6-1.6,1.3-2.3l2.1,1.3c-0.5,0.5-0.8,1.1-0.9,1.6c-0.1,0.5-0.1,1,0.2,1.5c0.2,0.5,0.6,0.9,1.1,1.2c0.8,0.4,1.7,0.8,2.7,1
	l7.4,1.6L182.6,114.7z M173.9,118.4c0,1-0.2,2.3-0.6,4.1c-0.2,1-0.3,1.7-0.3,2.2c0,0.5,0.2,0.9,0.4,1.2c0.2,0.3,0.6,0.6,1,0.7
	c0.6,0.2,1.2,0.2,1.8-0.1c0.6-0.3,1-0.9,1.4-1.8c0.3-0.9,0.4-1.7,0.3-2.6c-0.1-0.8-0.5-1.5-1-2.1c-0.4-0.4-1.1-0.9-2.1-1.2
	L173.9,118.4z M179.1,120.1c0.4,1.1,0.6,2.1,0.6,3c0,0.9-0.2,1.8-0.5,2.7c-0.6,1.5-1.4,2.5-2.4,3c-1,0.5-2.1,0.6-3.2,0.1
	c-0.7-0.3-1.2-0.6-1.6-1.1c-0.4-0.5-0.7-1.1-0.9-1.7c-0.1-0.6-0.2-1.3-0.1-1.9c0.1-0.5,0.2-1.2,0.4-2.2c0.5-1.9,0.8-3.4,0.8-4.4
	c-0.3-0.1-0.5-0.2-0.6-0.2c-0.9-0.4-1.7-0.4-2.2-0.1c-0.7,0.4-1.3,1.2-1.8,2.3c-0.4,1.1-0.5,1.9-0.4,2.6c0.2,0.7,0.7,1.3,1.6,1.9
	l-1.2,2.1c-0.9-0.6-1.5-1.2-1.9-1.9c-0.4-0.7-0.6-1.5-0.6-2.6c0-1,0.3-2.1,0.7-3.3c0.4-1.2,0.9-2,1.5-2.7c0.6-0.6,1.1-1,1.6-1.2
	c0.5-0.2,1.2-0.2,1.8-0.1c0.4,0.1,1.1,0.3,2.2,0.7l3.1,1.2c2.1,0.8,3.5,1.3,4.1,1.4c0.6,0.1,1.2,0.1,1.8,0l-0.9,2.4
	C180.4,120.4,179.8,120.3,179.1,120.1z M170.2,143.1l-17.5-9.7l1.2-2.1l6.3,3.5c-0.6-1.6-0.5-3.2,0.4-4.8c0.5-0.9,1.2-1.6,1.9-2.1
	c0.8-0.5,1.5-0.7,2.4-0.6c0.8,0.1,1.8,0.4,3.1,1.1l8,4.5l-1.2,2.2l-8-4.5c-1.1-0.6-2-0.8-2.7-0.6c-0.7,0.2-1.4,0.7-1.8,1.6
	c-0.4,0.6-0.5,1.3-0.5,2.1c0,0.7,0.2,1.4,0.7,1.9c0.4,0.6,1.1,1.1,2.1,1.7l6.9,3.8L170.2,143.1z M166.2,148l-11.4-8.9l1.5-1.9
	l11.4,8.9L166.2,148z M152.7,137.4l-2.2-1.7l1.5-1.9l2.2,1.7L152.7,137.4z M159.6,155.5l-14.4-5.8l1.8-1.9l8.5,3.6
	c0.9,0.4,1.8,0.8,2.8,1.3c-0.4-0.7-0.9-1.5-1.4-2.5l-4.3-8.4l1.7-1.8l6.9,13.9L159.6,155.5z M147.4,156.7c-0.5,0.8-1.3,1.9-2.5,3.2
	c-0.7,0.7-1.1,1.3-1.4,1.7c-0.2,0.4-0.3,0.8-0.2,1.2c0,0.4,0.2,0.8,0.5,1.1c0.4,0.5,1,0.8,1.6,0.8c0.7,0,1.4-0.3,2.1-0.9
	c0.7-0.6,1.3-1.3,1.6-2.1c0.3-0.8,0.4-1.6,0.2-2.3c-0.1-0.6-0.6-1.3-1.2-2.2L147.4,156.7z M151,160.8c-0.2,1.2-0.6,2.1-1,2.9
	c-0.5,0.8-1.1,1.5-1.8,2.1c-1.2,1-2.4,1.5-3.6,1.4c-1.2-0.1-2.1-0.6-2.9-1.5c-0.4-0.6-0.7-1.2-0.8-1.8c-0.1-0.7-0.1-1.3,0.1-1.9
	c0.2-0.6,0.5-1.2,0.9-1.7c0.3-0.4,0.8-1,1.5-1.7c1.4-1.4,2.4-2.6,2.9-3.4c-0.2-0.3-0.3-0.4-0.4-0.5c-0.6-0.8-1.3-1.2-1.9-1.2
	c-0.8,0-1.7,0.3-2.7,1.1c-0.9,0.7-1.4,1.4-1.6,2.1c-0.2,0.7,0,1.5,0.4,2.4l-2.1,1.3c-0.5-0.9-0.7-1.8-0.7-2.6c0-0.8,0.2-1.6,0.8-2.5
	c0.5-0.9,1.3-1.7,2.2-2.5c1-0.8,1.8-1.3,2.6-1.6c0.8-0.3,1.5-0.3,2-0.2c0.6,0.1,1.1,0.4,1.6,0.8c0.3,0.3,0.8,0.8,1.5,1.7l2.1,2.5
	c1.4,1.8,2.4,2.9,2.8,3.3c0.5,0.4,1,0.7,1.6,1l-2,1.6C152,161.7,151.5,161.3,151,160.8z M134.9,179.6l-1.3-1.9
	c0.5-0.1,1-0.3,1.3-0.5c0.5-0.3,0.8-0.5,1-0.9c0.2-0.3,0.3-0.7,0.4-1.1c0-0.3,0-0.9-0.2-2c0-0.1-0.1-0.4-0.1-0.6l-11.7-10.2l2.3-1.2
	l6.6,6c0.8,0.8,1.7,1.6,2.5,2.5c-0.3-1.1-0.5-2.3-0.7-3.4l-1.2-8.9l2.2-1.2l2.1,15.6c0.2,1.7,0.3,2.9,0.3,3.6c0,0.9-0.2,1.7-0.5,2.3
	c-0.3,0.6-0.8,1.1-1.5,1.5C136.1,179.3,135.6,179.5,134.9,179.6z M116.7,172.5c0.6,1.8,1.4,2.9,2.5,3.6c1,0.6,2.1,0.7,3.1,0.4
	c1-0.3,1.7-1.1,2.2-2.1c0.4-1.1,0.3-2.5-0.2-4.2c-0.6-1.9-1.5-3.1-2.5-3.8c-1-0.6-2.1-0.8-3.1-0.4c-1,0.4-1.7,1.1-2.1,2.2
	C116,169.3,116.1,170.7,116.7,172.5z M126.4,176.8l-0.6-1.7c-0.4,1.7-1.4,2.8-3.1,3.4c-1.1,0.4-2.2,0.4-3.3,0.1
	c-1.1-0.3-2.1-0.9-3-1.8c-0.9-0.9-1.6-2.1-2-3.5c-0.5-1.4-0.7-2.7-0.6-4c0.1-1.3,0.5-2.4,1.2-3.3c0.7-0.9,1.6-1.6,2.8-1.9
	c0.8-0.3,1.6-0.4,2.4-0.2c0.8,0.1,1.4,0.4,2,0.8l-2.3-6.8l2.3-0.8l6.5,18.9L126.4,176.8z M111.4,181l-2.8-14.2l2.4-0.5l2.8,14.2
	L111.4,181z M108.1,164.1l-0.5-2.8l2.4-0.5l0.5,2.8L108.1,164.1z M99.6,182.3l-9.5-19.3l2.9-0.2l6.4,14c0.5,1.1,1,2.2,1.3,3.2
	c0.2-1.1,0.5-2.2,0.8-3.4l4.1-14.9l2.7-0.2l-6.1,20.6L99.6,182.3z M77.8,173.2c-1,0.1-2.3,0-4.1-0.2c-1-0.1-1.7-0.2-2.2-0.1
	c-0.5,0.1-0.8,0.2-1.2,0.5c-0.3,0.3-0.5,0.6-0.7,1c-0.2,0.6-0.1,1.2,0.3,1.8c0.4,0.6,1,1,1.9,1.2c0.9,0.3,1.8,0.3,2.6,0.1
	c0.8-0.2,1.5-0.6,2-1.2c0.4-0.5,0.8-1.2,1.1-2.3L77.8,173.2z M76.5,178.5c-1.1,0.5-2.1,0.8-3,0.9c-0.9,0.1-1.8,0-2.7-0.3
	c-1.5-0.4-2.6-1.1-3.2-2.1c-0.6-1-0.7-2.1-0.4-3.2c0.2-0.7,0.5-1.3,1-1.7c0.5-0.5,1-0.8,1.6-1c0.6-0.2,1.2-0.3,1.9-0.3
	c0.5,0,1.2,0.1,2.2,0.2c2,0.3,3.5,0.5,4.4,0.4c0.1-0.3,0.2-0.5,0.2-0.6c0.3-1,0.2-1.7-0.1-2.2c-0.4-0.7-1.3-1.2-2.5-1.6
	c-1.1-0.3-2-0.4-2.6-0.1c-0.6,0.2-1.2,0.8-1.8,1.7l-2.2-1c0.5-0.9,1.1-1.6,1.7-2.1c0.7-0.5,1.5-0.7,2.5-0.8c1-0.1,2.1,0.1,3.3,0.4
	c1.2,0.3,2.1,0.8,2.8,1.3c0.7,0.5,1.1,1,1.3,1.5c0.2,0.5,0.3,1.1,0.3,1.8c0,0.4-0.2,1.2-0.5,2.2l-0.9,3.1c-0.6,2.2-1,3.6-1,4.2
	c-0.1,0.6,0,1.2,0.1,1.8l-2.5-0.7C76.4,179.8,76.4,179.2,76.5,178.5z M51.5,177.1l0.7-2.2c0.4,0.4,0.8,0.6,1.2,0.8
	c0.5,0.2,0.9,0.3,1.3,0.3c0.4,0,0.7-0.1,1.1-0.4c0.2-0.2,0.7-0.6,1.5-1.3c0.1-0.1,0.3-0.3,0.5-0.5l1.2-15.5l2.4,1.1l-0.8,8.9
	c-0.1,1.1-0.3,2.3-0.5,3.5c0.7-0.9,1.5-1.8,2.3-2.6l6.4-6.3l2.2,1l-11.2,11c-1.2,1.2-2.1,2-2.6,2.4c-0.7,0.5-1.4,0.9-2.1,1
	c-0.7,0.1-1.4,0-2.1-0.3C52.4,177.8,51.9,177.5,51.5,177.1z M48.5,168.8l7.2-12.5l2.1,1.2l-7.2,12.5L48.5,168.8z M57.1,154l1.4-2.4
	l2.1,1.2l-1.4,2.4L57.1,154z M47.9,159.7c-0.9-0.3-2.2-0.9-3.7-1.8c-0.9-0.5-1.5-0.8-2-1c-0.4-0.1-0.9-0.1-1.3,0
	c-0.4,0.1-0.7,0.4-1,0.7c-0.4,0.5-0.6,1.1-0.5,1.7c0.1,0.6,0.5,1.3,1.3,1.9c0.7,0.6,1.5,1,2.4,1.1c0.8,0.1,1.6,0,2.3-0.3
	c0.6-0.3,1.2-0.8,1.9-1.7L47.9,159.7z M44.6,164.1c-1.2,0-2.2-0.1-3.1-0.4c-0.9-0.3-1.7-0.7-2.4-1.3c-1.2-1-1.9-2.1-2.1-3.2
	c-0.2-1.1,0.1-2.2,0.9-3.1c0.4-0.6,1-1,1.6-1.2c0.6-0.3,1.2-0.4,1.9-0.3c0.6,0.1,1.3,0.2,1.9,0.5c0.5,0.2,1.1,0.6,1.9,1.1
	c1.7,1.1,3,1.8,3.9,2.1c0.2-0.3,0.4-0.4,0.4-0.5c0.6-0.8,0.9-1.5,0.8-2.1c-0.1-0.8-0.7-1.6-1.6-2.4c-0.9-0.7-1.7-1.1-2.4-1.1
	c-0.7,0-1.4,0.3-2.3,0.9l-1.7-1.8c0.8-0.7,1.6-1.1,2.4-1.3c0.8-0.2,1.7-0.1,2.6,0.2c0.9,0.3,1.9,0.9,2.9,1.7c1,0.8,1.6,1.5,2.1,2.2
	c0.4,0.7,0.6,1.4,0.6,1.9c0,0.6-0.1,1.2-0.5,1.8c-0.2,0.4-0.6,1-1.3,1.8l-2.1,2.5c-1.4,1.8-2.3,2.9-2.6,3.5
	c-0.3,0.5-0.5,1.1-0.6,1.7l-2-1.6C44,165.3,44.2,164.7,44.6,164.1z M20.4,142.2l11.1-9.3l1.4,1.7l-1.6,1.3c0.8-0.1,1.7,0,2.5,0.3
	c0.8,0.3,1.5,0.8,2.2,1.6c0.7,0.8,1.1,1.6,1.2,2.5c0.1,0.8-0.1,1.6-0.5,2.3c2-0.2,3.6,0.4,4.8,1.8c0.9,1.1,1.3,2.2,1.2,3.3
	c-0.1,1.1-0.8,2.2-2.1,3.3l-7.6,6.4l-1.6-1.9l7-5.9c0.8-0.6,1.2-1.1,1.5-1.5c0.2-0.4,0.3-0.8,0.2-1.3c-0.1-0.5-0.3-1-0.6-1.4
	c-0.7-0.8-1.5-1.2-2.4-1.3c-0.9-0.1-2,0.4-3.1,1.3l-6.5,5.4l-1.6-1.9l7.2-6c0.8-0.7,1.3-1.4,1.5-2c0.2-0.7,0-1.3-0.6-2
	c-0.4-0.5-1-0.9-1.7-1.1c-0.7-0.2-1.3-0.2-2,0c-0.7,0.2-1.6,0.8-2.6,1.6l-5.8,4.8L20.4,142.2z M20.7,126.6c-1.7,0.8-2.7,1.8-3.2,3
	c-0.5,1.1-0.4,2.3,0.2,3.4c0.6,1.1,1.4,1.8,2.6,2.1c1.2,0.3,2.6,0,4.3-0.8c1.6-0.8,2.6-1.8,3.1-2.9c0.5-1.1,0.4-2.3-0.1-3.3
	c-0.6-1.1-1.4-1.8-2.6-2.1C23.8,125.5,22.3,125.8,20.7,126.6z M19.5,124.4c2.4-1.2,4.5-1.5,6.3-0.7c1.5,0.6,2.7,1.7,3.5,3.3
	c0.9,1.8,1.1,3.5,0.5,5.2c-0.6,1.7-1.9,3.1-4,4.1c-1.7,0.8-3.1,1.3-4.3,1.3c-1.2,0-2.3-0.4-3.3-1c-1-0.7-1.8-1.6-2.4-2.7
	c-0.9-1.8-1.1-3.6-0.5-5.3C16,126.9,17.4,125.5,19.5,124.4z M14,108.2l0.9,2.4c-0.9,0.4-1.7,0.8-2.2,1.4c-0.5,0.6-0.8,1.4-1,2.3
	c-0.1,1-0.1,2,0.2,3.1c0.3,1,0.6,1.8,1.1,2.5c0.5,0.7,1,1.1,1.6,1.3c0.6,0.2,1.2,0.3,1.8,0.1c0.6-0.2,1.1-0.5,1.4-1
	c0.4-0.5,0.6-1.2,0.7-2c0.1-0.6,0.1-1.8,0-3.7c0-1.9,0-3.2,0.2-4.1c0.2-1.1,0.7-1.9,1.2-2.5c0.6-0.6,1.3-1.1,2.2-1.3
	c1-0.3,2-0.2,3,0.1c1,0.3,1.9,1,2.6,1.9c0.7,0.9,1.3,2.1,1.6,3.4c0.4,1.4,0.5,2.8,0.3,4c-0.2,1.2-0.6,2.2-1.4,3.1
	c-0.7,0.8-1.7,1.4-2.8,1.8l-0.8-2.4c1.2-0.5,2-1.2,2.4-2.1c0.4-0.9,0.4-2.1,0-3.6c-0.4-1.5-1-2.6-1.8-3.2c-0.8-0.6-1.5-0.7-2.3-0.5
	c-0.7,0.2-1.2,0.6-1.5,1.2c-0.3,0.6-0.4,2-0.3,4.2c0.1,2.2,0.1,3.7-0.1,4.6c-0.2,1.3-0.7,2.3-1.3,3c-0.7,0.7-1.5,1.3-2.5,1.5
	c-1,0.3-2.1,0.2-3.1-0.1c-1.1-0.3-2-1-2.8-2c-0.8-1-1.4-2.1-1.8-3.5c-0.5-1.7-0.6-3.3-0.4-4.6c0.2-1.3,0.7-2.5,1.6-3.4
	C11.6,109.3,12.7,108.6,14,108.2z"/>
<path class="st0" d="M139.5,80.5c0.9-1,1.7-2,2.6-3c0.9-1.2,1.3-2.1,1-2.9c-0.2-0.5-0.4-1-0.7-1.4c-0.3-0.4-0.7-0.7-1.3-1l-1.6,1.7
	c0.5,0.4,0.9,0.7,1.2,1.1c0.4,0.3,0.6,0.6,0.6,0.7c0.1,0.2-0.1,0.4-0.3,0.9c-0.8,1.2-1.7,2.4-2.5,3.5L139.5,80.5z M153.5,67.9
	l0.7,1.6l-9.9,4l-0.7,3.1l11.5-4.7l0.8,1.9l2.2-0.9l-2.4-5.9L153.5,67.9z M149.9,60.9l1.1,2l-3.1,1.7l-0.6-1
	c-0.1-0.1-0.2-0.2-0.4-0.2c-0.2,0-0.4,0.1-0.6,0.2c-0.5,0.3-0.8,0.6-0.9,1l-0.9,2.7c-0.1,0.2-0.1,0.4-0.1,0.6c0,0.2,0.1,0.4,0.1,0.5
	c0.1,0.2,0.3,0.3,0.5,0.4c0.2,0.1,0.4,0.1,0.6-0.1l1-0.6l1.7,3l2.3-1.3l-1.7-3l3.1-1.7l1.1,2l2.1-1.2l-3.5-6.3L149.9,60.9z
	 M146.9,56.2l0.9,1.5l-9,5.7l-0.1,3.1l10.5-6.6l1.1,1.7l2-1.3l-3.4-5.4L146.9,56.2z M145.6,54.4l1.1,1.4l1.9-1.5l-4-5l-1.9,1.5
	l1.6,2c0.1,0.2,0.1,0.4,0,0.6c-0.1,0.2-0.2,0.4-0.4,0.6c-0.3,0.2-0.7,0.4-1.1,0.4c-0.4,0-0.7-0.1-0.9-0.4l-0.7-0.9
	c-0.2,0-0.4,0.1-0.7,0.3c-0.8,0.6-1.4,1.6-1.7,2.7c-0.4,1.4-0.3,2.5,0.4,3.3c0.7,0.8,1.5,1.4,2.5,1.7l2.5-2c-0.7,0-1.3-0.1-2-0.4
	c-0.6-0.3-1.2-0.7-1.6-1.2c-0.2-0.2-0.3-0.5-0.3-0.8c0-0.3,0-0.5,0.2-0.7c0.5,0.4,1.2,0.6,1.9,0.5c0.7-0.1,1.4-0.4,2-0.9
	C145,55.3,145.4,54.9,145.6,54.4z M137.2,48.7c-0.5-0.5-1.2-0.7-2-0.6c-0.8,0.1-1.5,0.6-2.3,1.4c-0.6,0.6-0.9,1.6-1.1,3.1
	c-0.2,1.3-0.2,2.8,0,4.4l1.1,0.5c0.1-3.5,0.5-5.6,1.3-6.4c0.4-0.4,0.8-0.6,1.2-0.7c0.4,0,0.8,0.1,1.1,0.4c0.4,0.4,0.5,0.8,0.3,1
	l-1.6,1.7l0.8,2l1.9-2c0.2-0.2,0.5-0.4,0.8-0.4c0.3,0,0.6,0.1,0.8,0.3c0.2,0.2,0.4,0.4,0.5,0.7c0.3-0.4,0.5-0.9,0.5-1.4
	c0.1-0.5-0.1-0.9-0.4-1.2l-0.2-0.2c-0.2-0.2-0.5-0.3-0.9-0.4c-0.4,0-0.7,0.1-1,0.2c0.1-0.4,0.1-0.8,0-1.2
	C137.9,49.6,137.6,49.1,137.2,48.7z M138,42.9l-1.6,1.7L142,50l1.6-1.7L138,42.9z M131.3,40.8l1.4,1.1l-6.6,8.4l0.9,3l7.7-9.8
	l1.6,1.2l1.5-1.9l-5-3.9L131.3,40.8z M127.9,35.8l-1.3,2l4.7,2.9l1.3-2L127.9,35.8z M129.7,45.4c-1.4,0.3-2.6,0.2-3.4-0.3
	c-0.5-0.3-0.6-0.6-0.4-1c0.3-0.6,0.9-0.8,1.8-0.7c0.9,0.1,1.7,0.4,2.4,0.9l0.2-2.3c-1.1-0.7-2.1-1-3-0.9c-0.9,0.1-1.6,0.6-2.2,1.5
	c-0.5,0.8-0.6,1.7-0.4,2.7c0.3,1,0.8,1.8,1.6,2.3c0.3,0.2,0.6,0.3,0.9,0.4c0.3,0.1,0.6,0.1,1,0L129.7,45.4z M118.8,37.9l-1.5,2.9
	c0.6-0.2,1.1-0.3,1.5-0.2c0.5,0,0.9,0.2,1.3,0.4c0.2,0.3,0.3,0.5,0.4,0.8c0,0.3,0,0.5-0.1,0.7c-0.2,0.4-0.5,0.7-1,1
	c-0.5,0.3-1,0.5-1.5,0.6c-0.2,0.4-0.3,0.7-0.3,1c0,0.4,0.3,0.7,0.9,1c0.5,0.3,1.1,0.2,1.7-0.3c0.6-0.5,1.1-1.1,1.5-1.9
	c0.5-1,0.6-2,0.4-3.1c-0.2-1.3-0.9-2.2-1.9-2.7C119.7,37.8,119.2,37.7,118.8,37.9z M121.4,35.5l4.9,2.5l1.1-2.1l-4.9-2.5L121.4,35.5
	z M117.6,27.8c-0.4-0.5-0.8-0.9-1.1-1.2c-0.7-0.7-1.2-1.1-1.5-1.3l-2.5-1.1l0.3,3l1.6,0.7c0.5,0.2,1.4,0.8,2.5,1.7
	c1.1,0.9,1.7,1.6,1.9,2l1.8,0.8c-0.3-1.7-0.5-3.2-0.8-4.3c-0.4-1.8-0.7-3.2-1.1-4.3c-0.4-1.3-0.8-2.1-1.3-2.3l-2.5-1.1l0.3,3
	l0.8,0.4c0.2,0.1,0.6,0.9,1,2.3C117.3,26.9,117.5,27.5,117.6,27.8z M115.2,33l1.6,0.6l-3.6,10l1.8,2.6l4.3-11.7l1.9,0.7l0.8-2.2
	l-6-2.2L115.2,33z M115.3,33.1l0.7-2.3l-5.3-1.5l-0.7,2.3L115.3,33.1z M115.1,37.7c-1.3,0.6-2.4,0.8-3.2,0.6
	c-0.7-0.2-0.9-0.7-0.8-1.4c0.2-0.6,1.4-0.9,3.5-0.9l-0.3-2.2c-1.2-0.1-2.3,0.1-3.1,0.5c-1,0.4-1.6,1.1-1.8,2
	c-0.1,0.9,0.1,1.8,0.5,2.6c0.5,0.8,1.2,1.4,2.1,1.6c0.3,0.1,0.7,0.1,1.1,0.1c0.4,0,0.8-0.1,1.2-0.2L115.1,37.7z M101.3,45.3
	c0.1-0.9-0.2-1.7-0.7-2.4c-0.5-0.6-1.3-1-2.2-1.1c-0.7-0.1-1.3,0-1.8,0.2c-0.5,0.2-1,0.6-1.4,1.3l1.3,1.9c0.4-0.6,0.8-1,1.2-1.2
	c0.4-0.2,0.7-0.4,1-0.3c0.3,0,0.6,0.2,0.8,0.4c0.2,0.2,0.3,0.5,0.3,0.8c0,0.5-0.2,0.9-0.5,1.1c-0.4,0.3-1.1,0.5-2,0.4
	c-0.9-0.1-1.8-0.7-2.9-1.8c-0.8-0.8-1.4-1.7-2-2.7l-1.5-0.1c1.3,2,2,2.9,2,3c0.8,1,1.5,1.8,2.2,2.3c0.8,0.6,1.7,1,2.7,1.1
	c1.1,0.1,1.9-0.2,2.6-0.7C100.8,47,101.2,46.3,101.3,45.3z M95.1,30.2h1.7v10.7l2.6,1.8V30.2h2v-2.4h-6.4V30.2z M95.4,29.8l-0.2-2.4
	l-6.3,0.4l0.2,2.4L95.4,29.8z M91.8,32.4c-0.6,0-1,0.3-1.4,0.8c-0.3,0.5-0.5,1.2-0.4,2c0.1,1.1,0.5,2.2,1.2,3.3
	c0.6,0.9,1.6,2.1,3,3.5l1.1-0.7c-0.9-0.7-1.7-1.6-2.3-2.6c-0.7-1-1-1.8-1.1-2.4c0-0.4,0.1-0.7,0.3-0.9c0.2-0.3,0.5-0.4,1-0.4
	l3.7-0.3l-0.2-2.7L91.8,32.4z M75.4,33.3l1.7-0.5L80,43.1l3,1l-3.4-12l1.9-0.6l-0.7-2.3L74.7,31L75.4,33.3z M69.5,33.3l0.9,2.2
	l5.1-2.1l-0.9-2.2L69.5,33.3z M78.2,37.4c-0.6,1.3-1.3,2.2-2.3,2.6c-0.5,0.2-0.9,0.1-1.1-0.3c-0.2-0.6-0.1-1.2,0.5-1.9
	c0.6-0.6,1.3-1.1,2.1-1.5l-1.8-1.5c-1.2,0.5-2,1.1-2.5,1.9c-0.4,0.8-0.5,1.7-0.1,2.6c0.4,0.9,1,1.5,2,1.9c1,0.4,1.9,0.4,2.8,0.1
	c0.3-0.1,0.6-0.3,0.8-0.5c0.2-0.2,0.4-0.4,0.6-0.8L78.2,37.4z M67.7,34c-1.6-1-3.2-1.9-4.9-2.5c-1.7-0.6-2.9-0.8-3.5-0.5l-2.5,1.1
	l2.4,1.8l1.6-0.7c0.5-0.2,1.2-0.2,2.2,0.1c1,0.3,2,0.7,3.2,1.4L67.7,34z M64.3,40.9c-0.5,0.4-0.8,1-0.8,1.6c0,0.6,0.2,1.4,0.6,2.2
	c0.6,1,1.5,1.8,2.7,2.3c1.4,0.6,2.6,0.5,3.7,0l0.6-0.4c0.5,0.2,0.9,0.4,1.1,0.5c0.4,0.2,0.7,0.5,0.9,0.8l1.7-1
	c-0.3-0.3-0.6-0.5-0.8-0.7c-0.6-0.4-1.2-0.7-1.7-0.7c0.2-0.6,0.2-1,0.2-1.2c0-0.2-0.1-0.5-0.3-0.8c-0.4-0.7-0.7-1.1-0.9-1.3
	c-0.5-0.4-1.1-0.3-1.7,0c-0.4,0.2-0.7,0.5-0.8,1c-0.2,0.4-0.2,0.9,0,1.2c0.1,0.2,0.4,0.4,0.6,0.6c-0.1,0.1-0.3,0.3-0.5,0.4
	c-0.5,0.3-1.1,0.3-1.8,0.1c-0.6-0.2-1.1-0.5-1.3-0.9c-0.2-0.3-0.3-0.7-0.2-1.2c0-0.5,0.2-0.8,0.6-1l3.2-1.8l-2.2-3.9l2-1.1l-1.2-2.1
	l-9.1,5l1.2,2.1l5-2.8l1,1.8L64.3,40.9z M55,45.2l1.4-1.1l6.6,8.4l3.1-0.2l-7.7-9.8l1.6-1.2l-1.5-1.9l-5,3.9L55,45.2z M50.5,49.4
	l1.3-1.2l7.4,7.7l3.1-0.5l-8.6-8.9l1.5-1.4l-1.7-1.7l-4.6,4.4L50.5,49.4z M49.2,54.8C49,55,48.9,55.3,49,55.7c0,0.4,0.2,0.7,0.4,0.9
	c0.2,0.2,0.4,0.2,0.7,0.2l3.5,0.1c0.5,0,0.8-0.1,1-0.3c0.1-0.1,0.1-0.3,0-0.3l-2-1.8l2.9-3.2l-1.8-1.6L49.2,54.8z M44.2,52.7
	l1.8,1.6l4.5-5l-1.8-1.6L44.2,52.7z M42.3,59.8l1-1.4l8.6,6.3l3-1.1l-10.1-7.3l1.2-1.6l-1.9-1.4l-3.7,5.1L42.3,59.8z M39.3,64.9
	l0.9-1.5l9.1,5.5l2.9-1.3l-10.7-6.4l1-1.7l-2.1-1.2l-3.3,5.5L39.3,64.9z M33.5,72.9l2.2,0.9l3-7.8l-2.2-0.9L33.5,72.9z M45.1,72.5
	c-0.8,0.3-1.4,0.8-1.7,1.5c-0.2,0.5-0.2,0.9,0,1.3c0.2,0.4,0.5,0.7,0.9,0.9c0.5,0.2,0.9,0.1,1.3-0.2c0.4-0.3,0.7-0.8,0.9-1.4
	l0.2-0.6l2.5-0.9l-0.1-1.5l-2.3,0.5c0-0.7-0.1-1.3-0.5-1.9c-0.3-0.6-0.8-1-1.3-1.2c-0.7-0.3-1.6,0-2.6,0.7c-0.8,0.6-1.4,1.3-2,2.1
	l2.1-5.4l-2.2-0.8l-2.3,5.9c-0.2,0.4-0.2,0.8,0,1.3c0.1,0.4,0.4,0.7,0.8,0.9c0.9,0.3,2-0.1,3.4-1.3c1.3-1.2,2.2-1.8,2.6-1.7
	c0.3,0.1,0.4,0.3,0.5,0.6C45.3,71.7,45.2,72.1,45.1,72.5z"/>
<path class="st0" d="M171.2,65.1l1,1.9c-0.4,0.2-0.6,0.5-0.7,0.8c-0.1,0.3-0.1,0.7,0.1,1.2c0.2,0.5,0.4,0.9,0.7,1.1
	c0.2,0.1,0.4,0.2,0.6,0.1c0.2-0.1,0.3-0.1,0.3-0.3c0.1-0.1,0.1-0.4,0-0.8c-0.2-1.7-0.2-2.9-0.1-3.4c0.2-0.7,0.7-1.2,1.4-1.5
	c0.7-0.2,1.3-0.2,1.9,0.2c0.6,0.4,1.1,1.1,1.5,2.2c0.4,1,0.5,1.9,0.3,2.5c-0.2,0.6-0.5,1.1-1.1,1.6l-1-1.8c0.3-0.2,0.4-0.4,0.5-0.7
	c0.1-0.3,0-0.6-0.1-1c-0.2-0.5-0.4-0.9-0.6-1.1c-0.2-0.1-0.3-0.1-0.5-0.1c-0.1,0-0.2,0.2-0.3,0.3c-0.1,0.2,0,0.9,0.1,2.1
	c0.1,1.2,0.1,2-0.1,2.5c-0.2,0.5-0.6,0.9-1.3,1.1c-0.7,0.2-1.4,0.2-2.1-0.3c-0.7-0.4-1.2-1.2-1.6-2.3c-0.4-1-0.4-1.9-0.2-2.7
	C170.1,66.1,170.5,65.5,171.2,65.1 M172.3,60.9c0.6-0.3,0.9-0.6,1.1-1c0.2-0.4,0.2-0.8,0-1.2c-0.2-0.4-0.5-0.7-0.9-0.8
	c-0.4-0.1-0.9-0.1-1.4,0.2L172.3,60.9z M170.3,61.7l0.6,2.1c-0.8,0.1-1.5-0.1-2.2-0.4c-0.6-0.4-1.1-0.9-1.5-1.7
	c-0.6-1.3-0.6-2.4-0.1-3.4c0.4-0.8,1.2-1.4,2.2-1.9c1.2-0.6,2.3-0.7,3.3-0.4c1,0.3,1.7,0.9,2.1,1.9c0.5,1.1,0.5,2.1,0.1,3.1
	c-0.4,1-1.4,1.8-2.9,2.4l-2.2-4.8c-0.6,0.3-0.9,0.6-1.1,1.1c-0.2,0.4-0.2,0.9,0,1.3c0.1,0.3,0.3,0.5,0.6,0.6
	C169.6,61.8,169.9,61.8,170.3,61.7z M172.4,53.2l-1.5,0.8l-0.7-1.3l-2.8,1.6c-0.6,0.3-0.9,0.5-1,0.6c-0.1,0.1-0.1,0.2-0.1,0.3
	c0,0.1,0,0.2,0.1,0.4c0.1,0.2,0.3,0.4,0.6,0.6l-1.3,1c-0.4-0.3-0.8-0.8-1.1-1.3c-0.2-0.3-0.3-0.7-0.4-1c0-0.3,0-0.6,0.1-0.8
	c0.1-0.2,0.3-0.4,0.6-0.7c0.2-0.2,0.6-0.4,1.3-0.8l3-1.7l-0.5-0.8l1.5-0.8l0.5,0.8l1.4-0.8l2.1,1.2l-2.5,1.4L172.4,53.2z
	 M164.5,48.4c-0.2-0.2-0.5-0.5-1-0.9c-0.4-0.4-0.7-0.7-0.9-0.8c-0.3-0.1-0.6-0.1-0.9,0.1c-0.3,0.2-0.4,0.4-0.5,0.7
	c-0.1,0.3,0,0.6,0.2,0.9c0.2,0.3,0.5,0.6,0.9,0.7c0.3,0.1,0.6,0.1,0.9,0c0.2-0.1,0.5-0.2,0.9-0.5L164.5,48.4z M164.4,45.1l-0.8-1.8
	c0.8-0.2,1.5-0.2,2.1,0c0.6,0.2,1.2,0.8,1.8,1.7c0.5,0.8,0.8,1.4,0.9,2c0.1,0.5,0,0.9-0.2,1.3c-0.2,0.3-0.7,0.8-1.4,1.3l-2.1,1.3
	c-0.6,0.4-1,0.7-1.3,0.9c-0.2,0.2-0.5,0.5-0.7,0.9l-1.1-1.8c0.1-0.1,0.2-0.3,0.4-0.5c0.1-0.1,0.1-0.2,0.2-0.2
	c-0.5-0.1-0.9-0.3-1.3-0.5c-0.4-0.3-0.7-0.6-0.9-1c-0.4-0.7-0.6-1.4-0.5-2c0.1-0.6,0.5-1.2,1-1.5c0.4-0.2,0.8-0.4,1.2-0.4
	c0.4,0,0.8,0.1,1.2,0.3c0.4,0.2,0.8,0.6,1.3,1.1c0.7,0.7,1.2,1.2,1.6,1.4l0.2-0.1c0.3-0.2,0.5-0.5,0.6-0.7c0-0.3-0.1-0.6-0.4-1.1
	c-0.2-0.3-0.4-0.5-0.7-0.6C165.1,45,164.8,45,164.4,45.1z M156.4,43.6l-1.3-1.6l6.2-5l1.2,1.5l-0.9,0.7c0.6-0.1,1.1-0.1,1.4,0
	c0.3,0.1,0.6,0.3,0.8,0.6c0.3,0.4,0.5,0.8,0.6,1.3l-1.9,0.7c0-0.4-0.2-0.8-0.4-1c-0.2-0.2-0.4-0.4-0.7-0.4c-0.3-0.1-0.6,0-1,0.2
	c-0.4,0.2-1.1,0.7-2.2,1.6L156.4,43.6z M155.9,36c0.4-0.4,0.7-0.9,0.7-1.3c0-0.4-0.1-0.8-0.4-1.1c-0.3-0.3-0.7-0.5-1.2-0.5
	c-0.5,0-0.9,0.2-1.3,0.6L155.9,36z M154.3,37.4l1.2,1.8c-0.7,0.3-1.5,0.4-2.2,0.3c-0.7-0.1-1.4-0.5-2-1.2c-1-1-1.4-2.1-1.2-3.2
	c0.2-0.9,0.6-1.7,1.4-2.5c1-0.9,1.9-1.4,3-1.4c1,0,1.9,0.3,2.6,1.1c0.8,0.9,1.2,1.8,1.1,2.9c-0.1,1-0.7,2.1-1.9,3.2l-3.7-3.8
	c-0.4,0.4-0.7,0.9-0.7,1.4c0,0.5,0.1,0.9,0.5,1.2c0.2,0.2,0.5,0.4,0.8,0.4C153.6,37.6,153.9,37.6,154.3,37.4z M146.1,27.7
	c-0.5,0.7-0.8,1.2-0.8,1.7c-0.1,0.7,0.2,1.2,0.6,1.6c0.4,0.3,0.8,0.4,1.3,0.3c0.5-0.1,1-0.5,1.6-1.2c0.6-0.7,0.8-1.3,0.8-1.9
	c0-0.5-0.2-0.9-0.6-1.3c-0.4-0.3-0.9-0.4-1.4-0.3C147.1,26.7,146.6,27.1,146.1,27.7z M141.8,29.8l6.8-8.7l1.7,1.3l-2.5,3.1
	c1-0.2,1.8,0,2.5,0.6c0.8,0.6,1.2,1.4,1.3,2.3c0.1,1-0.3,1.9-1.1,3c-0.8,1.1-1.8,1.7-2.7,1.9c-1,0.2-1.8,0-2.6-0.6
	c-0.4-0.3-0.6-0.6-0.9-1.1c-0.2-0.5-0.3-1-0.3-1.5l-0.7,0.9L141.8,29.8z M138.5,27.4l4.3-6.8l1.8,1.1l-4.3,6.8L138.5,27.4z
	 M143.3,19.7l1-1.7l1.8,1.1l-1,1.7L143.3,19.7z M130.3,22.6l5.3-9.6l2,1.1l-4.4,8l4.9,2.7l-0.9,1.6L130.3,22.6z M124.2,15
	c0.2-0.6,0.2-1.1,0-1.5c-0.2-0.4-0.5-0.7-0.9-0.8c-0.4-0.1-0.9-0.1-1.2,0.1c-0.4,0.2-0.7,0.6-0.8,1.2L124.2,15z M123.4,17l1.9,1
	c-0.5,0.7-1.1,1.1-1.8,1.3c-0.7,0.2-1.4,0.2-2.3-0.1c-1.3-0.4-2.2-1.2-2.5-2.3c-0.3-0.9-0.2-1.8,0.1-2.9c0.4-1.3,1.1-2.1,2-2.6
	c0.9-0.5,1.8-0.6,2.9-0.3c1.1,0.4,1.9,1,2.3,2c0.4,1,0.4,2.2-0.2,3.8l-5.1-1.6c-0.2,0.6-0.2,1.1,0,1.6c0.2,0.4,0.5,0.7,1,0.9
	c0.3,0.1,0.6,0.1,0.9,0C122.9,17.6,123.2,17.4,123.4,17z M116.1,17.4l-2.1-0.5l0.9-4c0.2-0.8,0.3-1.4,0.2-1.7c0-0.3-0.1-0.5-0.3-0.7
	c-0.2-0.2-0.4-0.3-0.7-0.4c-0.4-0.1-0.7-0.1-1,0.1c-0.3,0.1-0.6,0.3-0.8,0.6c-0.2,0.3-0.4,0.9-0.6,1.8l-0.8,3.5l-2.1-0.5l1.8-7.8
	l1.9,0.4l-0.3,1.1c0.9-0.7,1.8-1,2.9-0.7c0.5,0.1,0.9,0.3,1.2,0.5c0.3,0.3,0.6,0.5,0.7,0.8c0.1,0.3,0.2,0.6,0.2,1
	c0,0.3-0.1,0.8-0.2,1.4L116.1,17.4z M101.6,10.9c-0.1,0.8,0.1,1.4,0.4,1.9c0.3,0.4,0.8,0.7,1.3,0.7c0.6,0,1-0.1,1.4-0.5
	c0.4-0.4,0.6-1,0.7-1.8c0.1-0.8-0.1-1.4-0.4-1.8c-0.3-0.4-0.8-0.7-1.3-0.7c-0.6,0-1,0.1-1.4,0.5C101.9,9.5,101.7,10.1,101.6,10.9z
	 M99.5,10.7c0-0.7,0.3-1.4,0.7-2c0.4-0.6,0.9-1.1,1.6-1.4c0.7-0.3,1.4-0.4,2.2-0.4c1.2,0.1,2.2,0.5,2.9,1.4c0.7,0.8,1,1.9,1,3.1
	c-0.1,1.2-0.5,2.2-1.4,2.9c-0.8,0.7-1.8,1.1-3,1c-0.7-0.1-1.4-0.3-2.1-0.6c-0.6-0.4-1.1-0.9-1.4-1.6C99.5,12.4,99.4,11.6,99.5,10.7z
	 M95.2,14.8l0.2-11.1l2.1,0l-0.2,11.1L95.2,14.8z M89.8,10.6l-1.8-4l-1.2,4.2L89.8,10.6z M94.2,14.7l-2.4,0.2l-1.1-2.4l-4.4,0.3
	l-0.7,2.6l-2.4,0.2l3.5-11.3L89,4L94.2,14.7z M75.5,12.5c-0.2-0.6-0.4-1-0.8-1.2c-0.4-0.2-0.8-0.3-1.2-0.2c-0.4,0.1-0.8,0.4-1,0.8
	c-0.2,0.4-0.2,0.9-0.1,1.4L75.5,12.5z M76,14.6l2.1-0.2c-0.1,0.8-0.3,1.5-0.8,2c-0.5,0.5-1.1,0.9-2,1.2C74,18,72.9,17.8,72,17.1
	c-0.7-0.6-1.2-1.4-1.5-2.5c-0.3-1.3-0.3-2.4,0.2-3.3c0.5-0.9,1.2-1.5,2.3-1.8c1.2-0.3,2.2-0.2,3,0.4c0.9,0.6,1.5,1.7,1.9,3.2
	l-5.1,1.4c0.2,0.6,0.5,1,0.9,1.3c0.4,0.3,0.8,0.3,1.3,0.2c0.3-0.1,0.6-0.2,0.7-0.5C75.9,15.4,76,15.1,76,14.6z M63.4,17.1
	c0.3,0.8,0.7,1.3,1.1,1.6c0.4,0.2,0.9,0.3,1.4,0.1c0.5-0.2,0.8-0.5,1-1c0.2-0.5,0.1-1.1-0.1-1.9c-0.3-0.8-0.7-1.3-1.1-1.5
	c-0.5-0.3-0.9-0.3-1.4-0.1c-0.5,0.2-0.8,0.5-1,1C63,15.7,63.1,16.3,63.4,17.1z M63.3,22.2l2.4-0.6c0.1,0.2,0.3,0.4,0.5,0.4
	c0.2,0.1,0.6,0,1-0.1c0.5-0.2,0.9-0.4,1.1-0.7c0.1-0.2,0.2-0.4,0.2-0.7c0-0.2-0.1-0.5-0.3-0.9l-0.4-1.1c-0.3,1-0.9,1.7-1.8,2.1
	c-1,0.4-2,0.3-2.9-0.4c-0.7-0.5-1.3-1.2-1.7-2.2c-0.5-1.3-0.5-2.3-0.2-3.2c0.4-0.9,1-1.5,1.9-1.9c0.9-0.4,1.8-0.2,2.8,0.3l-0.4-1
	l1.9-0.7l2.6,6.7c0.3,0.9,0.5,1.6,0.5,2.1c0,0.5,0,0.9-0.2,1.3c-0.2,0.3-0.4,0.7-0.8,1c-0.4,0.3-0.9,0.6-1.6,0.9
	c-1.3,0.5-2.3,0.6-3,0.4c-0.7-0.2-1.2-0.7-1.4-1.3C63.4,22.3,63.3,22.3,63.3,22.2z M54.5,21.6c0.4,0.7,0.8,1.2,1.2,1.5
	c0.6,0.3,1.1,0.3,1.7,0c0.4-0.2,0.7-0.6,0.8-1.2c0.1-0.5-0.1-1.2-0.5-1.9c-0.4-0.8-0.9-1.3-1.4-1.5c-0.5-0.2-1-0.2-1.4,0.1
	c-0.4,0.2-0.7,0.6-0.8,1.1C53.9,20.3,54.1,20.9,54.5,21.6z M61.4,22.5l-1.7,1l-0.6-1c-0.1,0.6-0.2,1-0.5,1.5c-0.3,0.4-0.6,0.7-1,0.9
	c-0.8,0.4-1.7,0.5-2.6,0.2c-0.9-0.3-1.7-1.1-2.4-2.2c-0.7-1.2-0.9-2.3-0.7-3.2c0.2-0.9,0.8-1.6,1.6-2.1c0.8-0.4,1.6-0.5,2.6-0.1
	l-1.9-3.5l1.9-1L61.4,22.5z M49.1,24.4c-0.4-0.5-0.8-0.8-1.2-0.9c-0.4-0.1-0.8,0-1.2,0.2c-0.4,0.3-0.6,0.6-0.6,1.1
	c-0.1,0.4,0.1,0.9,0.4,1.4L49.1,24.4z M50.2,26.2l1.9-0.9c0.2,0.8,0.2,1.5,0,2.2c-0.2,0.7-0.7,1.3-1.5,1.8c-1.1,0.8-2.2,1-3.3,0.7
	c-0.9-0.3-1.6-0.9-2.2-1.8c-0.8-1.1-1.1-2.1-0.9-3.2c0.1-1,0.6-1.8,1.5-2.4c1-0.7,2-0.9,3-0.7c1,0.3,2,1.1,2.9,2.4l-4.4,3.1
	c0.4,0.5,0.8,0.8,1.3,0.9c0.5,0.1,0.9,0,1.3-0.3c0.3-0.2,0.4-0.4,0.5-0.7C50.4,26.9,50.4,26.6,50.2,26.2z M44.6,33.8l-7.1-8.5
	l1.6-1.4l7.1,8.5L44.6,33.8z M37.1,41.2l-7.5-3.7l1.4-1.5l4.8,2.6L33,33.9l1.4-1.5l4.7,2.7l-2.7-4.8l1.5-1.5l4,7.4l-1.4,1.5
	l-4.7-2.6l2.8,4.6L37.1,41.2z M28.3,46.2c0.6,0.5,1.2,0.7,1.8,0.6c0.6-0.1,1-0.3,1.3-0.8c0.3-0.4,0.4-0.9,0.3-1.5
	c-0.1-0.6-0.5-1.1-1.2-1.5c-0.6-0.5-1.2-0.7-1.8-0.6c-0.6,0.1-1,0.3-1.3,0.8c-0.3,0.4-0.4,1-0.3,1.5C27.2,45.2,27.6,45.7,28.3,46.2z
	 M26.9,47.9c-0.6-0.4-1-1-1.4-1.6c-0.3-0.7-0.4-1.4-0.4-2.1c0.1-0.7,0.4-1.4,0.8-2c0.7-1,1.6-1.6,2.7-1.7c1.1-0.2,2.1,0.1,3.1,0.8
	c1,0.7,1.6,1.6,1.8,2.7c0.2,1.1-0.1,2.1-0.8,3.1c-0.4,0.6-1,1.1-1.6,1.4c-0.7,0.3-1.4,0.5-2.1,0.4C28.4,48.7,27.6,48.4,26.9,47.9z
	 M29.3,51.7l-1.1,1.8l-3.5-2c-0.8-0.4-1.3-0.7-1.5-0.7c-0.3,0-0.5,0-0.7,0.1c-0.2,0.1-0.4,0.3-0.6,0.5c-0.2,0.3-0.3,0.7-0.2,1
	c0,0.4,0.2,0.7,0.4,0.9c0.2,0.3,0.7,0.6,1.5,1.1l3.1,1.8L25.6,58l-6.9-4l1-1.7l1,0.6c-0.4-1.1-0.4-2.1,0.1-3c0.2-0.4,0.5-0.7,0.9-1
	c0.3-0.2,0.7-0.4,1-0.4c0.3,0,0.7,0,1,0.1c0.3,0.1,0.8,0.3,1.3,0.6L29.3,51.7z M21.4,68.3l-10.3-4.1l0.8-2.1l4.6,1.8l-2.9-6l1.1-2.8
	l2.4,5.5l7.9-1.5l-1.1,2.7l-6,0.9l1,2.4l3.1,1.3L21.4,68.3z"/>
<path class="st1" d="M97.7,105.8c-11.3-3-23.4-17.8-11.3-31.2c12.1-13.4,6.2-20.6,6.4-26c0,0,20,12.1,17.8,32.7
	C108.5,101.1,92.6,101.4,97.7,105.8"/>
<path class="st1" d="M161.3,93.9c-0.5,35.8-29.6,64.6-65.5,64.6c-35.9,0-65-28.9-65.5-64.6c0.4,17.7,14.9,31.9,32.7,31.9
	c18.1,0,32.7-14.7,32.7-32.7c0,18.1,14.7,32.7,32.7,32.7C146.4,125.8,160.9,111.6,161.3,93.9 M95.8,92.7c0,0.1,0,0.3,0,0.4
	C95.8,92.9,95.8,92.8,95.8,92.7L95.8,92.7z"/>
</svg>
